<svg width="125" height="34" viewBox="0 0 125 34" fill="none" xmlns="http://www.w3.org/2000/svg">
<g clip-path="url(#clip0_508_10245)">
<path fill-rule="evenodd" clip-rule="evenodd" d="M102.115 9.71825L103.304 0.984131H107.581L104.205 25.6536H100.185L100.378 24.3178C99.0599 25.4579 97.2593 26.0446 95.3943 26.0446C90.4423 26.0446 87.0982 22.5576 87.0982 17.6044C87.0982 11.6409 91.4713 7.53442 96.7447 7.53442C99.0278 7.53442 100.893 8.34903 102.115 9.71825ZM91.5032 17.3765C91.5032 20.1786 93.304 22.1339 95.9729 22.1339C99.0921 22.1339 101.311 19.4622 101.311 16.2031C101.311 13.4659 99.5422 11.4451 96.9056 11.4451C93.7544 11.4451 91.5032 14.052 91.5032 17.3765Z" fill="#0A0A0C"/>
<path fill-rule="evenodd" clip-rule="evenodd" d="M78.8003 7.53442C75.2633 7.53442 72.2084 9.29457 70.8902 12.0645L74.202 13.9544C74.6024 13.1313 75.22 12.4367 75.9864 11.9477C76.7527 11.4587 77.6377 11.1945 78.5432 11.1844C80.2153 11.1844 81.6943 12.1621 81.4695 13.9217L81.4049 14.4108L75.8743 15.2909C72.0478 15.9097 69.3146 17.8323 69.3146 21.2217C69.3146 24.3826 71.694 26.0446 75.0705 26.0446C77.1284 26.0446 78.8646 25.4257 80.3116 24.0892L80.0867 25.6536H84.106L85.6817 14.1174C86.2283 10.2395 83.0128 7.53442 78.8003 7.53442ZM80.8583 18.3536C80.5368 20.798 78.6074 22.7861 76.0351 22.7861C74.6525 22.7861 73.6877 22.1667 73.6877 20.9611C73.6877 19.5925 74.8776 18.7773 76.4852 18.4845L80.9549 17.702L80.8583 18.3536Z" fill="#0A0A0C"/>
<path d="M70.0252 7.7302H68.9963C66.8737 7.7302 65.1375 8.38177 63.9476 10.3371L64.2691 7.92597H60.282L57.838 25.6536H62.0826L63.369 16.1055C63.8191 13.0743 65.6198 11.5105 67.9992 11.5105H69.5106L70.0252 7.7302Z" fill="#0A0A0C"/>
<path fill-rule="evenodd" clip-rule="evenodd" d="M124.485 15.5515C124.485 11.1196 121.624 7.53442 116.446 7.53442C111.173 7.53442 107.185 11.9663 107.185 17.3765C107.185 22.2642 110.498 26.0446 115.675 26.0446C119.212 26.0446 122.138 24.3178 123.392 21.743L120.048 19.9834C119.589 20.7068 118.955 21.2992 118.207 21.7042C117.458 22.1091 116.62 22.3132 115.771 22.297C113.295 22.297 111.623 20.7326 111.494 17.9954H124.131C124.341 17.1971 124.46 16.3771 124.485 15.5515ZM111.848 14.7369C112.491 12.5531 113.906 11.0541 116.414 11.0541C118.633 11.0541 120.112 12.5858 120.08 14.7369H111.848Z" fill="#0A0A0C"/>
<path fill-rule="evenodd" clip-rule="evenodd" d="M53.6777 9.94614L53.9349 7.92598L57.9542 7.92597L55.6068 25.1324C54.9958 29.6291 51.1693 32.8228 46.2173 32.8228C42.23 32.8228 39.1111 30.6395 38.4679 27.5114L42.4552 26.2731C42.7766 27.9023 44.256 28.9127 46.5392 28.9127C49.0151 28.9127 51.0086 27.3483 51.3303 25.0021L51.5554 23.4377C48.297 26.1316 43.3601 25.0268 40.7189 22.0108C40.4668 21.7229 40.2282 21.4302 39.993 21.1416C38.9837 19.9033 38.3932 19.0634 36.648 18.5721C36.0663 21.4966 34.612 23.878 32.0714 25.6261C30.9986 26.2737 29.7715 26.6116 28.5229 26.6033C27.8859 26.5989 25.9821 26.5457 24.6186 25.0599C23.9449 24.2991 23.5191 23.3463 23.3993 22.3313C23.2586 21.2115 23.4373 20.0742 23.9142 19.054C24.2018 18.3831 24.5899 17.7612 25.0647 17.2102C25.0637 17.2102 26.9539 14.6886 30.804 14.016C30.883 14.0015 30.9494 13.9903 30.9987 13.9823L31.0084 13.9801C30.9835 13.9307 30.9564 13.8832 30.9291 13.8357C30.9213 13.8219 30.9134 13.8082 30.9056 13.7944C29.2796 12.1835 27.6972 11.9919 26.3341 12.2463C25.9776 12.3133 25.6293 12.419 25.2952 12.5615C25.286 12.5664 25.2765 12.5706 25.2668 12.5743C24.2819 12.9984 23.4487 13.7181 22.8796 14.6366C22.143 15.8413 21.9205 17.2868 21.7134 18.6884C21.5132 20.0441 21.0725 22.9572 20.6314 25.8741C20.188 28.8052 19.7441 31.7401 19.543 33.1024L17.3083 33.1024C16.6646 33.1025 16.3916 33.1026 15.7319 33.1024L17.4621 20.4351C16.6981 20.8259 15.8983 21.1403 15.0742 21.3738C14.8741 22.823 14.6741 24.2722 14.4742 25.7214H10.5331L10.7874 23.7888C9.64322 25.3672 7.86342 26.108 5.82931 26.108C1.66585 26.108 -0.527228 23.1123 0.108359 18.5063L1.53869 8.19895H5.73406L4.30382 18.5707C3.98588 20.7932 5.19362 22.2427 7.25963 22.2427C7.71747 22.2171 8.17059 22.1357 8.60921 22.0002C8.6965 21.9732 8.7773 21.941 8.8581 21.9089C8.88554 21.898 8.91299 21.8871 8.94069 21.8764C10.1759 21.3042 11.071 20.0924 11.2959 18.474L12.7485 7.81183H16.9459L15.6444 17.2421C16.5176 16.9164 17.2883 16.3586 17.8757 15.6273C17.9797 15.4955 18.0785 15.3592 18.1745 15.22L19.1864 7.81182H23.3756L23.3649 7.8727C23.349 7.97475 23.3305 8.10154 23.3082 8.2639L23.1823 9.14256C23.2323 9.11155 23.2825 9.08146 23.3328 9.05135L23.357 9.03683C24.6516 8.21352 26.1031 8.04997 27.6314 8.06922C29.7644 8.09608 31.3232 8.6709 32.9638 9.9255C33.6063 10.4168 34.709 11.3011 36.109 13.8585C38.1367 14.2702 40.0319 15.1855 41.6247 16.5222C42.2151 17.0122 42.7214 17.6428 43.2291 18.2749C44.0378 19.2819 44.8498 20.2929 46.0098 20.7469C49.142 21.9727 52.5843 19.0399 52.5841 15.8119C52.584 13.27 50.9764 11.4451 48.4362 11.4451C47.2674 11.4393 46.1335 11.8487 45.2316 12.6022C44.3296 13.3557 43.7167 14.4057 43.4993 15.5696C42.3607 14.5779 41.0689 13.7828 39.6756 13.2162C40.9933 9.81671 44.1711 7.53442 48.0182 7.53442C50.3655 7.53442 52.3913 8.38177 53.6777 9.94614ZM31.5182 19.63C31.7265 19.0266 31.8771 18.4044 31.9677 17.7718C32.7227 17.5977 34.369 17.7004 34.369 17.7004C34.2602 17.6633 34.1004 17.6116 33.905 17.5587C33.8238 17.5357 33.7001 17.5031 33.5475 17.4729C33.1802 17.4078 32.8074 17.3804 32.4347 17.3911C31.5423 17.4278 30.6649 17.6355 29.8488 18.003L29.8483 18.0032C29.5839 18.1338 27.3937 19.2153 27.262 20.8404C27.2063 21.2365 27.3015 21.6392 27.5282 21.9667C27.7281 22.2145 28.0052 22.3861 28.3139 22.4535C28.6534 22.5229 29.0059 22.4762 29.3164 22.3208C29.7247 22.1236 30.0884 21.843 30.3846 21.4966C30.8681 20.9471 31.2519 20.3151 31.5182 19.63Z" fill="#0A0A0C"/>
</g>
<defs>
<clipPath id="clip0_508_10245">
<rect width="124.487" height="32.0317" fill="white" transform="translate(0 0.984131)"/>
</clipPath>
</defs>
</svg>
